<?xml version="1.0" standalone="no"?>
<!DOCTYPE svg PUBLIC "-//W3C//DTD SVG 20010904//EN"
 "http://www.w3.org/TR/2001/REC-SVG-20010904/DTD/svg10.dtd">
<svg version="1.0" xmlns="http://www.w3.org/2000/svg"
 width="64.000000pt" height="64.000000pt" viewBox="0 0 64.000000 64.000000"
 preserveAspectRatio="xMidYMid meet">

<g transform="translate(0.000000,64.000000) scale(0.100000,-0.100000)"
fill="#000000" stroke="none">
<path d="M167 614 c-12 -13 -7 -44 8 -50 11 -5 15 -22 15 -69 0 -61 -1 -63
-29 -68 -40 -8 -100 -63 -122 -112 -51 -110 14 -253 128 -284 21 -6 132 -11
246 -11 200 0 208 1 202 19 -3 10 -42 98 -85 196 -77 169 -80 179 -80 251 0
59 3 74 15 74 10 0 15 10 15 30 l0 30 -70 0 -70 0 0 -30 c0 -20 5 -30 15 -30
12 0 15 -16 15 -80 0 -85 -6 -94 -44 -65 -11 8 -28 15 -38 15 -15 0 -18 9 -18
64 0 49 4 65 16 70 9 3 14 15 12 28 -3 21 -9 23 -63 26 -34 2 -64 0 -68 -4z
m113 -24 c0 -5 -22 -10 -50 -10 -27 0 -50 5 -50 10 0 6 23 10 50 10 28 0 50
-4 50 -10z m180 0 c0 -5 -22 -10 -50 -10 -27 0 -50 5 -50 10 0 6 23 10 50 10
28 0 50 -4 50 -10z m-210 -99 l0 -69 35 -12 c108 -36 162 -155 116 -255 -70
-151 -272 -151 -342 0 -46 100 8 219 116 255 l35 12 0 69 c0 62 2 69 20 69 18
0 20 -7 20 -69z m180 -7 c0 -74 3 -82 80 -255 44 -98 80 -181 80 -184 0 -3
-60 -5 -132 -5 -90 0 -128 3 -118 10 8 5 36 10 63 10 26 0 47 5 47 10 0 6 -16
10 -35 10 l-34 0 22 34 c17 27 27 33 45 29 16 -4 30 2 47 21 29 31 30 36 11
36 -7 0 -20 -10 -28 -22 -22 -33 -35 -15 -40 57 -4 46 -13 77 -30 103 -22 34
-23 45 -20 130 4 82 6 92 23 92 17 0 19 -8 19 -76z"/>
<path d="M60 265 c0 -9 54 -54 64 -55 6 0 20 10 33 22 l23 22 16 -22 c19 -28
49 -28 68 0 l16 22 23 -22 c13 -12 27 -22 33 -22 10 1 64 46 64 55 0 14 -31 3
-44 -17 l-16 -22 -23 22 c-29 27 -35 27 -64 0 l-23 -21 -23 21 c-29 27 -35 27
-64 0 l-23 -22 -16 22 c-13 20 -44 31 -44 17z"/>
<path d="M60 219 c0 -26 29 -89 41 -89 12 0 11 11 -6 40 -8 14 -14 35 -15 48
0 12 -4 22 -10 22 -5 0 -10 -9 -10 -21z"/>
<path d="M380 218 c-1 -13 -7 -34 -15 -48 -17 -30 -18 -40 -4 -40 12 0 39 61
39 90 0 11 -4 20 -10 20 -5 0 -10 -10 -10 -22z"/>
<path d="M174 79 c-10 -16 67 -26 100 -13 9 3 16 9 16 13 0 8 -111 8 -116 0z"/>
<path d="M503 158 c31 -79 40 -98 48 -98 5 0 9 4 9 10 0 17 -44 100 -53 100
-5 0 -7 -6 -4 -12z"/>
</g>
</svg>
